/* XPM */
static char * raine_xpm[] = {
"48 48 16 1",
" 	c None",
".	c #6B4100",
"+	c #FFFFC6",
"@	c #C66100",
"#	c #EFB600",
"$	c #EF8E00",
"%	c #7371FF",
"&	c #8496FF",
"*	c #5251EF",
"=	c #9CB6FF",
"-	c #F7F7F7",
";	c #E76163",
">	c #BDB6BD",
",	c #FFAEAD",
"'	c #FF8684",
")	c #847984",
"                                                ",
"                    ....                        ",
"                   .+++@.                       ",
"                  .+####@.                      ",
"                 .+######@.                     ",
"                .$+#######@.......              ",
"               .@@$######@@$++++++.             ",
"              ..@@$$$$$@@@@$$+####+.            ",
"            ..%&&&&&&&&&%%*@@######@.           ",
"          ..&&&========&&&%%**$####$.           ",
"         .%%&===========&&&%%*$$###$.           ",
"        .***%====%***%%==&&&%%**#$$@.           ",
"       .*====%==%----==&==&&&%%*@@@.            ",
"      .%*=---==%------==&=&&&%%*@@.             ",
"      .%&-----=--------===&&&&%*@....           ",
"     .%&=---.@&-----.@@====&&&%%*$+++.          ",
"     .%&=---..&-----..@====&&&%%*$$+$$.         ",
"     .&&-----.&------..-===&&&%%%@@#+$$.        ",
"     .&=-----.&------..-===&&&%%%@@#$$@.        ",
"     .==-----.&------..-===&&&&%%@@#$$@.        ",
"    ..==----..&-----...-===&&&&%%%%$@@.         ",
"   .%===----..&-----...-==####&%%%%@..          ",
"  .%-##=----.@&-----..@-=##-##$%%%%@...         ",
"  .++-##----@@&-----.@@-##-++#$$%%%#++$.        ",
"  .#+###=-----&---------###+##$$%%%####$.       ",
"  .####$=-----==-------=#####$$$%%%####$$.      ",
"  .%##$;==---====----====####$$%%%%$##$@@.      ",
"   .%%&&&================&$;;;%%%%%@$$@@.       ",
"    .%&&&==============&&&&%%%%%%%%@$@@.        ",
"     .......---->;;;;;;;;;;%%****%%&@@.         ",
"       ....,--->>,,,';;;%%%%*'';;.%&#++.        ",
"      .....,>>>>>,,,';;;%%%*'''';;.&##+$.       ",
"     .%%============&&&&%%*'',,'';;.$$#$$.      ",
"      ..%&=========&&&&&%%.',--,'';;&&$$@.      ",
"     ...%&&=======&&&&&&%%.',--,'';;&&@@@.      ",
"    .,'''..>>>>>>>>>>&&&%%.'',,'';;;%&@..       ",
"   .--''.--------------&&%.;''''';;)%&@++.      ",
"   .--';.--------------&&%*.;'';;;;)%&@+##.     ",
"   .-)..>--------------&&&%*.;;;)>)>%&&##$.     ",
"    .. .>-------------&&&%%**.->>)-.%%&@@.      ",
"       .>------------&&&%%%%*.--)--.%%&@@...    ",
"     ...>---------->',,,,,...*..>..%%%%&&@++.   ",
"    .,,,'>-------->'''',''';;.*****%%%%&&&#+.   ",
"   ..,,'''>------>''''''''';;.*****%%%%%&&##.   ",
"  .--->>;..>>>>>>--->--->>;;;;.*****%%%%%%&&@.. ",
" .--->>);;;.)).--->>)-->>);;;;.******%%%%%%%%%%.",
" .--->));;;....--->))-->));;;;..***************.",
"  .........    ................ ............... "};
